<?xml version="1.0" encoding="UTF-8" standalone="no"?>
<svg
   width="16"
   height="16"
   version="1.1"
   id="svg1"
   sodipodi:docname="ProgressBar.svg"
   xml:space="preserve"
   inkscape:version="1.3.2 (091e20e, 2023-11-25, custom)"
   xmlns:inkscape="http://www.inkscape.org/namespaces/inkscape"
   xmlns:sodipodi="http://sodipodi.sourceforge.net/DTD/sodipodi-0.dtd"
   xmlns="http://www.w3.org/2000/svg"
   xmlns:svg="http://www.w3.org/2000/svg"><defs
     id="defs1" /><sodipodi:namedview
     id="namedview1"
     pagecolor="#ffffff"
     bordercolor="#000000"
     borderopacity="0.25"
     inkscape:showpageshadow="2"
     inkscape:pageopacity="0.0"
     inkscape:pagecheckerboard="0"
     inkscape:deskcolor="#d1d1d1"
     inkscape:zoom="36.725358"
     inkscape:cx="10.265387"
     inkscape:cy="9.1626063"
     inkscape:window-width="1920"
     inkscape:window-height="1027"
     inkscape:window-x="-8"
     inkscape:window-y="22"
     inkscape:window-maximized="1"
     inkscape:current-layer="svg1" /><path
     fill="#8eef97"
     d="M 3,3 C 1.8954305,3 1,3.8954305 1,5 v 6 c 0,1.104569 0.8954305,2 2,2 h 10 c 1.104569,0 2,-0.895431 2,-2 V 5 C 15,3.8954305 14.104569,3 13,3 Z m 0,2 h 10 v 6 H 3 Z M 3.576414,9.9085439 V 10.731649 H 5.4235861 V 9.9085439 Z M 3.4199759,5.0950662 V 6.0529483 H 7.211793 V 5.0950662 Z M 7.4801444,9.8315283 V 10.770156 H 12.54272 V 9.8315283 Z"
     id="path1"
     inkscape:label="Main"
     sodipodi:nodetypes="ssssssssscccccccccccccccccccc" /><rect
     style="fill:#8eef97;fill-opacity:1;fill-rule:nonzero;stroke:none;stroke-width:1.02741"
     id="rect3"
     width="0.98407912"
     height="3.1254773"
     x="4.0050073"
     y="6.2708039" /><rect
     style="fill:#8eef97;fill-opacity:1;fill-rule:nonzero;stroke:none;stroke-width:1.02741"
     id="rect4"
     width="0.98407912"
     height="3.1254773"
     x="5.7749014"
     y="6.2708039" /><rect
     style="fill:#8eef97;fill-opacity:1;fill-rule:nonzero;stroke:none;stroke-width:1.02741"
     id="rect6"
     width="0.98407912"
     height="3.1254773"
     x="7.5311809"
     y="6.2708039" /><rect
     style="fill:#8eef97;fill-opacity:1;fill-rule:nonzero;stroke:none;stroke-width:1.02741"
     id="rect8"
     width="0.98407912"
     height="3.1254773"
     x="9.3691483"
     y="6.2708039" /><rect
     style="fill:#8eef97;fill-opacity:1;fill-rule:nonzero;stroke:none;stroke-width:1.02741"
     id="rect9"
     width="0.98407912"
     height="3.1254773"
     x="11.125427"
     y="6.2708039" /></svg>
